<svg xmlns="http://www.w3.org/2000/svg" xmlns:xlink="http://www.w3.org/1999/xlink" width="1080" height="1080" viewBox="0 0 1080 1080">
  <defs>
    <style>
      .cls-1, .cls-2 {
        fill: #fd5068;
      }

      .cls-1, .cls-2, .cls-3 {
        fill-rule: evenodd;
      }

      .cls-2 {
        filter: url(#filter);
      }

      .cls-3 {
        fill: #fff;
      }
    </style>
    <filter id="filter" x="438.625" y="686" width="196.031" height="272.031" filterUnits="userSpaceOnUse">
      <feFlood result="flood" flood-color="#fd5068"/>
      <feComposite result="composite" operator="in" in2="SourceGraphic"/>
      <feBlend result="blend" mode="overlay" in2="SourceGraphic"/>
    </filter>
  </defs>
  <path class="cls-1" d="M562,1057s447.04-28.41,357-553c-0.371,4.084-26.7,76.282-86,96-2.052.067,69.625-177.956-129-387,0.866,1.7-9.8,90.47-23,109,0.076-.247-18.717-131.124-212-301-0.4,2.02,64.147,118.729-186,408,0.788,1.436-60.375,89.11-45,248-0.49.856-29.747-48.822-92-85-0.625-1.4,14.9,112.517,5,130,1.086,0.4,21.21,305.07,361,338-2.34.77,17.851-44.86-41-79-0.857-1.148-111.575-19.033-197-154,0.491,0.62,80.655,7.285,140,42-0.753.514-79.734-141.107-81-258-1.821-.961,74.417,45.342,135,136,0.675-.868-3.452-145.638,71-309,1.231-2.5,73.416,146.232,67,309-1.978,1.351,83.38-103.949,135-137-0.522,1.34,6.713,117.436-79,257,0.265-.221,77.387-34.075,142-41-0.286.286-98.426,133.335-208,160C596.811,986.594,564.773,997.647,562,1057Z"/>
  <path class="cls-2" d="M484,923s-54.65-70.125-44-95c0.5,0.193,39.166,31.28,42,32a48.147,48.147,0,0,0,6,1c0.77,0.134-4.248-44.748,20-86,0.431-.389,33.491-64.046,31-89,0.016,0.617,54.39,83.885,44,177-0.112.608,5,0,5,0l46-36s9.523,33.506-44,94c0.477-1.089,0,3,0,3l24,1s-23.1,31.121-75,33c-0.2.067-49.873,1.429-79-32-0.141.434,1-2,1-2h23v-1Z"/>
  <path class="cls-3" d="M366,469s-6.92,73.464,48,105C414.173,573.951,427.907,519.22,366,469Z"/>
  <path id="Shape_3_copy_2" data-name="Shape 3 copy 2" class="cls-3" d="M459.1,303.215s-23.908,56.124,11.719,94.824C470.969,398.044,495.58,358.4,459.1,303.215Z"/>
  <path id="Shape_3_copy_3" data-name="Shape 3 copy 3" class="cls-3" d="M548.8,174.548s-11.1,35.048,12.51,56.2C561.4,230.746,573.874,205.541,548.8,174.548Z"/>
  <path id="Shape_3_copy_6" data-name="Shape 3 copy 6" class="cls-3" d="M330.509,962.477s17.229,32.285,48.534,30.552C379.1,992.962,369.809,966.6,330.509,962.477Z"/>
  <path id="Shape_3_copy_7" data-name="Shape 3 copy 7" class="cls-3" d="M671.079,992.1s36.6-.188,49.658-28.691C720.705,963.331,693.05,959.26,671.079,992.1Z"/>
  <path id="Shape_3_copy_8" data-name="Shape 3 copy 8" class="cls-3" d="M607.555,421.415s25.687-26.066,14.705-55.434C622.179,365.946,599.782,382.671,607.555,421.415Z"/>
  <path id="Shape_3_copy" data-name="Shape 3 copy" class="cls-3" d="M238,724s20.411,70.768,83.013,80.015C321.153,803.9,313.924,748.049,238,724Z"/>
  <path id="Shape_3_copy_4" data-name="Shape 3 copy 4" class="cls-3" d="M711.777,470.947S650.058,511.139,659.5,573.712C659.645,573.817,710.95,550.59,711.777,470.947Z"/>
  <path id="Shape_3_copy_5" data-name="Shape 3 copy 5" class="cls-3" d="M884.578,686.588s-71.072,19.325-81.276,81.778C803.408,768.511,859.365,762.139,884.578,686.588Z"/>
</svg>
